<svg width="16" height="16" viewBox="0 0 16 16" fill="none" xmlns="http://www.w3.org/2000/svg">
<path fill-rule="evenodd" clip-rule="evenodd"
      d="M10.8896 1.59717C13.5133 3.86117 13.9868 7.79157 11.9777 10.6312L15.7531 14.4679L14.2418 16.0029L10.4671 12.1655C7.67133 14.206 3.80158 13.7252 1.57252 11.0603C-0.656542 8.3954 -0.498392 4.43895 1.93603 1.96637C4.37045 -0.506204 8.26584 -0.666833 10.8896 1.59717ZM2.18071 6.7359C2.18071 9.23279 4.1736 11.2569 6.63196 11.2569C9.08917 11.2541 11.0805 9.23163 11.0832 6.7359C11.0832 4.23902 9.09031 2.21489 6.63196 2.21489C4.1736 2.21489 2.18071 4.23902 2.18071 6.7359Z" fill="#1f2229"/>
</svg>
